<?xml version="1.0" standalone="no"?><!DOCTYPE svg PUBLIC "-//W3C//DTD SVG 1.1//EN" "http://www.w3.org/Graphics/SVG/1.1/DTD/svg11.dtd"><svg t="1621583109309" class="icon" viewBox="0 0 1024 1024" version="1.1" xmlns="http://www.w3.org/2000/svg" p-id="3333" id="mx_n_1621583109309" xmlns:xlink="http://www.w3.org/1999/xlink" width="200" height="200"><defs><style type="text/css"></style></defs><path d="M512 714.3424a28.8768 28.8768 0 0 1-28.8768-28.8768V464.6912l-143.36 128.6144a29.4912 29.4912 0 0 1-20.48 9.0112 26.8288 26.8288 0 0 1-20.48-8.8064 28.2624 28.2624 0 0 1-8.6016-20.48 26.2144 26.2144 0 0 1 8.3968-20.48l189.6448-182.4768a33.5872 33.5872 0 0 1 23.7568-9.8304 32.1536 32.1536 0 0 1 23.552 10.24L725.4016 552.96a28.4672 28.4672 0 0 1 8.3968 20.48 26.624 26.624 0 0 1-8.3968 19.456 18.2272 18.2272 0 0 1-17.6128 9.0112 32.5632 32.5632 0 0 1-22.9376-7.9872l-143.36-129.024v220.5696A28.8768 28.8768 0 0 1 512 714.3424z" fill="#515151" p-id="3334"></path><path d="M118.784 935.936A96.4608 96.4608 0 0 1 22.528 839.68V184.32a96.4608 96.4608 0 0 1 96.256-96.256h262.144a96.8704 96.8704 0 0 1 57.7536 20.48l78.6432 57.344a102.4 102.4 0 0 0 60.2112 20.48h327.68a96.4608 96.4608 0 0 1 96.256 96.256V839.68a96.4608 96.4608 0 0 1-96.256 96.256z m0-786.432A34.816 34.816 0 0 0 83.968 184.32v655.36a34.816 34.816 0 0 0 34.816 34.816h786.432a34.816 34.816 0 0 0 34.816-34.816V282.624a34.816 34.816 0 0 0-34.816-34.816h-327.68a162.6112 162.6112 0 0 1-97.0752-32.3584l-77.824-58.9824a34.4064 34.4064 0 0 0-20.48-6.9632z" fill="#515151" p-id="3335"></path></svg>